{
    "asset" : {
        "generator" : "Khronos glTF Blender I/O v1.5.17",
        "version" : "2.0"
    },
    "scene" : 0,
    "scenes" : [
        {
            "name" : "Scene",
            "nodes" : [
                0
            ]
        }
    ],
    "nodes" : [
        {
            "mesh" : 0,
            "name" : "Cube.124",
            "rotation" : [
                0.5,
                0.5,
                -0.5,
                0.4999999701976776
            ]
        }
    ],
    "materials" : [
        {
            "doubleSided" : true,
            "name" : "Black",
            "pbrMetallicRoughness" : {
                "baseColorFactor" : [
                    0,
                    0,
                    0,
                    1
                ],
                "metallicFactor" : 0,
                "roughnessFactor" : 0.4000000059604645
            }
        },
        {
            "doubleSided" : true,
            "name" : "FloorPannel1",
            "pbrMetallicRoughness" : {
                "baseColorTexture" : {
                    "index" : 0
                },
                "metallicFactor" : 0,
                "roughnessFactor" : 0.5
            }
        },
        {
            "doubleSided" : true,
            "name" : "MainUVTextureMap",
            "pbrMetallicRoughness" : {
                "baseColorTexture" : {
                    "index" : 1
                },
                "metallicFactor" : 0,
                "roughnessFactor" : 0.5
            }
        }
    ],
    "meshes" : [
        {
            "name" : "Cube.215",
            "primitives" : [
                {
                    "attributes" : {
                        "POSITION" : 0,
                        "NORMAL" : 1,
                        "TANGENT" : 2,
                        "TEXCOORD_0" : 3
                    },
                    "indices" : 4,
                    "material" : 0
                },
                {
                    "attributes" : {
                        "POSITION" : 5,
                        "NORMAL" : 6,
                        "TANGENT" : 7,
                        "TEXCOORD_0" : 8
                    },
                    "indices" : 9,
                    "material" : 1
                },
                {
                    "attributes" : {
                        "POSITION" : 10,
                        "NORMAL" : 11,
                        "TANGENT" : 12,
                        "TEXCOORD_0" : 13
                    },
                    "indices" : 14,
                    "material" : 2
                }
            ]
        }
    ],
    "textures" : [
        {
            "sampler" : 0,
            "source" : 0
        },
        {
            "sampler" : 0,
            "source" : 1
        }
    ],
    "images" : [
        {
            "bufferView" : 10,
            "mimeType" : "image/png",
            "name" : "29"
        },
        {
            "bufferView" : 16,
            "mimeType" : "image/png",
            "name" : "terrain"
        }
    ],
    "accessors" : [
        {
            "bufferView" : 0,
            "componentType" : 5126,
            "count" : 124,
            "max" : [
                4.9976701736450195,
                8.00829029083252,
                0.9999998211860657
            ],
            "min" : [
                -1.002329707145691,
                0.008289143443107605,
                -3.500534830891411e-07
            ],
            "type" : "VEC3"
        },
        {
            "bufferView" : 1,
            "componentType" : 5126,
            "count" : 124,
            "type" : "VEC3"
        },
        {
            "bufferView" : 2,
            "componentType" : 5126,
            "count" : 124,
            "type" : "VEC4"
        },
        {
            "bufferView" : 3,
            "componentType" : 5126,
            "count" : 124,
            "type" : "VEC2"
        },
        {
            "bufferView" : 4,
            "componentType" : 5123,
            "count" : 186,
            "type" : "SCALAR"
        },
        {
            "bufferView" : 5,
            "componentType" : 5126,
            "count" : 32,
            "max" : [
                4.9976701736450195,
                8.00829029083252,
                -1.1957160950260004e-07
            ],
            "min" : [
                -1.002329707145691,
                0.008289143443107605,
                -3.500534830891411e-07
            ],
            "type" : "VEC3"
        },
        {
            "bufferView" : 6,
            "componentType" : 5126,
            "count" : 32,
            "type" : "VEC3"
        },
        {
            "bufferView" : 7,
            "componentType" : 5126,
            "count" : 32,
            "type" : "VEC4"
        },
        {
            "bufferView" : 8,
            "componentType" : 5126,
            "count" : 32,
            "type" : "VEC2"
        },
        {
            "bufferView" : 9,
            "componentType" : 5123,
            "count" : 48,
            "type" : "SCALAR"
        },
        {
            "bufferView" : 11,
            "componentType" : 5126,
            "count" : 44,
            "max" : [
                4.999999046325684,
                8.000000953674316,
                4.618527782440651e-14
            ],
            "min" : [
                -1.0000001192092896,
                -1.1920928955078125e-07,
                -2.014681100845337
            ],
            "type" : "VEC3"
        },
        {
            "bufferView" : 12,
            "componentType" : 5126,
            "count" : 44,
            "type" : "VEC3"
        },
        {
            "bufferView" : 13,
            "componentType" : 5126,
            "count" : 44,
            "type" : "VEC4"
        },
        {
            "bufferView" : 14,
            "componentType" : 5126,
            "count" : 44,
            "type" : "VEC2"
        },
        {
            "bufferView" : 15,
            "componentType" : 5123,
            "count" : 66,
            "type" : "SCALAR"
        }
    ],
    "bufferViews" : [
        {
            "buffer" : 0,
            "byteLength" : 1488,
            "byteOffset" : 0
        },
        {
            "buffer" : 0,
            "byteLength" : 1488,
            "byteOffset" : 1488
        },
        {
            "buffer" : 0,
            "byteLength" : 1984,
            "byteOffset" : 2976
        },
        {
            "buffer" : 0,
            "byteLength" : 992,
            "byteOffset" : 4960
        },
        {
            "buffer" : 0,
            "byteLength" : 372,
            "byteOffset" : 5952
        },
        {
            "buffer" : 0,
            "byteLength" : 384,
            "byteOffset" : 6324
        },
        {
            "buffer" : 0,
            "byteLength" : 384,
            "byteOffset" : 6708
        },
        {
            "buffer" : 0,
            "byteLength" : 512,
            "byteOffset" : 7092
        },
        {
            "buffer" : 0,
            "byteLength" : 256,
            "byteOffset" : 7604
        },
        {
            "buffer" : 0,
            "byteLength" : 96,
            "byteOffset" : 7860
        },
        {
            "buffer" : 0,
            "byteLength" : 17861,
            "byteOffset" : 7956
        },
        {
            "buffer" : 0,
            "byteLength" : 528,
            "byteOffset" : 25820
        },
        {
            "buffer" : 0,
            "byteLength" : 528,
            "byteOffset" : 26348
        },
        {
            "buffer" : 0,
            "byteLength" : 704,
            "byteOffset" : 26876
        },
        {
            "buffer" : 0,
            "byteLength" : 352,
            "byteOffset" : 27580
        },
        {
            "buffer" : 0,
            "byteLength" : 132,
            "byteOffset" : 27932
        },
        {
            "buffer" : 0,
            "byteLength" : 56460,
            "byteOffset" : 28064
        }
    ],
    "samplers" : [
        {
            "magFilter" : 9728,
            "minFilter" : 9984
        }
    ],
    "buffers" : [
        {
            "byteLength" : 84524,
            "uri" : "data:application/octet-stream;base64,"
        }
    ]
}
