{
    "asset" : {
        "generator" : "Khronos glTF Blender I/O v1.5.17",
        "version" : "2.0"
    },
    "scene" : 0,
    "scenes" : [
        {
            "name" : "Scene",
            "nodes" : [
                0
            ]
        }
    ],
    "nodes" : [
        {
            "mesh" : 0,
            "name" : "Cube.099",
            "rotation" : [
                0.5,
                0.5,
                -0.5,
                0.4999999701976776
            ]
        }
    ],
    "materials" : [
        {
            "doubleSided" : true,
            "name" : "Black",
            "pbrMetallicRoughness" : {
                "baseColorFactor" : [
                    0,
                    0,
                    0,
                    1
                ],
                "metallicFactor" : 0,
                "roughnessFactor" : 0.4000000059604645
            }
        },
        {
            "doubleSided" : true,
            "name" : "MainUVTextureMap",
            "pbrMetallicRoughness" : {
                "baseColorTexture" : {
                    "index" : 0
                },
                "metallicFactor" : 0,
                "roughnessFactor" : 0.5
            }
        },
        {
            "doubleSided" : true,
            "name" : "Material",
            "pbrMetallicRoughness" : {
                "baseColorTexture" : {
                    "index" : 1
                },
                "metallicFactor" : 0,
                "roughnessFactor" : 0.5
            }
        },
        {
            "doubleSided" : true,
            "name" : "Decals",
            "pbrMetallicRoughness" : {
                "baseColorTexture" : {
                    "index" : 2
                },
                "metallicFactor" : 0,
                "roughnessFactor" : 0.5
            }
        }
    ],
    "meshes" : [
        {
            "name" : "Cube.185",
            "primitives" : [
                {
                    "attributes" : {
                        "POSITION" : 0,
                        "NORMAL" : 1,
                        "TANGENT" : 2,
                        "TEXCOORD_0" : 3
                    },
                    "indices" : 4,
                    "material" : 0
                },
                {
                    "attributes" : {
                        "POSITION" : 5,
                        "NORMAL" : 6,
                        "TANGENT" : 7,
                        "TEXCOORD_0" : 8
                    },
                    "indices" : 9,
                    "material" : 1
                },
                {
                    "attributes" : {
                        "POSITION" : 10,
                        "NORMAL" : 11,
                        "TANGENT" : 12,
                        "TEXCOORD_0" : 13
                    },
                    "indices" : 14,
                    "material" : 2
                },
                {
                    "attributes" : {
                        "POSITION" : 15,
                        "NORMAL" : 16,
                        "TANGENT" : 17,
                        "TEXCOORD_0" : 18
                    },
                    "indices" : 19,
                    "material" : 3
                }
            ]
        }
    ],
    "textures" : [
        {
            "sampler" : 0,
            "source" : 0
        },
        {
            "sampler" : 0,
            "source" : 1
        },
        {
            "sampler" : 0,
            "source" : 2
        }
    ],
    "images" : [
        {
            "bufferView" : 10,
            "mimeType" : "image/png",
            "name" : "terrain"
        },
        {
            "bufferView" : 16,
            "mimeType" : "image/png",
            "name" : "rustyboltedplates"
        },
        {
            "bufferView" : 22,
            "mimeType" : "image/png",
            "name" : "kz"
        }
    ],
    "accessors" : [
        {
            "bufferView" : 0,
            "componentType" : 5126,
            "count" : 196,
            "max" : [
                1.0000007152557373,
                0,
                1.0000005960464478
            ],
            "min" : [
                -4,
                -14,
                0
            ],
            "type" : "VEC3"
        },
        {
            "bufferView" : 1,
            "componentType" : 5126,
            "count" : 196,
            "type" : "VEC3"
        },
        {
            "bufferView" : 2,
            "componentType" : 5126,
            "count" : 196,
            "type" : "VEC4"
        },
        {
            "bufferView" : 3,
            "componentType" : 5126,
            "count" : 196,
            "type" : "VEC2"
        },
        {
            "bufferView" : 4,
            "componentType" : 5123,
            "count" : 294,
            "type" : "SCALAR"
        },
        {
            "bufferView" : 5,
            "componentType" : 5126,
            "count" : 64,
            "max" : [
                1.0000007152557373,
                -4.371138828673793e-08,
                6.119594786468951e-07
            ],
            "min" : [
                -4,
                -14,
                -2
            ],
            "type" : "VEC3"
        },
        {
            "bufferView" : 6,
            "componentType" : 5126,
            "count" : 64,
            "type" : "VEC3"
        },
        {
            "bufferView" : 7,
            "componentType" : 5126,
            "count" : 64,
            "type" : "VEC4"
        },
        {
            "bufferView" : 8,
            "componentType" : 5126,
            "count" : 64,
            "type" : "VEC2"
        },
        {
            "bufferView" : 9,
            "componentType" : 5123,
            "count" : 96,
            "type" : "SCALAR"
        },
        {
            "bufferView" : 11,
            "componentType" : 5126,
            "count" : 56,
            "max" : [
                1.0000007152557373,
                -4.371138828673793e-08,
                6.119594786468951e-07
            ],
            "min" : [
                -4,
                -14,
                -2
            ],
            "type" : "VEC3"
        },
        {
            "bufferView" : 12,
            "componentType" : 5126,
            "count" : 56,
            "type" : "VEC3"
        },
        {
            "bufferView" : 13,
            "componentType" : 5126,
            "count" : 56,
            "type" : "VEC4"
        },
        {
            "bufferView" : 14,
            "componentType" : 5126,
            "count" : 56,
            "type" : "VEC2"
        },
        {
            "bufferView" : 15,
            "componentType" : 5123,
            "count" : 84,
            "type" : "SCALAR"
        },
        {
            "bufferView" : 17,
            "componentType" : 5126,
            "count" : 4,
            "max" : [
                -3.999999761581421,
                -2,
                1.7484558156866115e-07
            ],
            "min" : [
                -4,
                -4,
                -2
            ],
            "type" : "VEC3"
        },
        {
            "bufferView" : 18,
            "componentType" : 5126,
            "count" : 4,
            "type" : "VEC3"
        },
        {
            "bufferView" : 19,
            "componentType" : 5126,
            "count" : 4,
            "type" : "VEC4"
        },
        {
            "bufferView" : 20,
            "componentType" : 5126,
            "count" : 4,
            "type" : "VEC2"
        },
        {
            "bufferView" : 21,
            "componentType" : 5123,
            "count" : 6,
            "type" : "SCALAR"
        }
    ],
    "bufferViews" : [
        {
            "buffer" : 0,
            "byteLength" : 2352,
            "byteOffset" : 0
        },
        {
            "buffer" : 0,
            "byteLength" : 2352,
            "byteOffset" : 2352
        },
        {
            "buffer" : 0,
            "byteLength" : 3136,
            "byteOffset" : 4704
        },
        {
            "buffer" : 0,
            "byteLength" : 1568,
            "byteOffset" : 7840
        },
        {
            "buffer" : 0,
            "byteLength" : 588,
            "byteOffset" : 9408
        },
        {
            "buffer" : 0,
            "byteLength" : 768,
            "byteOffset" : 9996
        },
        {
            "buffer" : 0,
            "byteLength" : 768,
            "byteOffset" : 10764
        },
        {
            "buffer" : 0,
            "byteLength" : 1024,
            "byteOffset" : 11532
        },
        {
            "buffer" : 0,
            "byteLength" : 512,
            "byteOffset" : 12556
        },
        {
            "buffer" : 0,
            "byteLength" : 192,
            "byteOffset" : 13068
        },
        {
            "buffer" : 0,
            "byteLength" : 56460,
            "byteOffset" : 13260
        },
        {
            "buffer" : 0,
            "byteLength" : 672,
            "byteOffset" : 69720
        },
        {
            "buffer" : 0,
            "byteLength" : 672,
            "byteOffset" : 70392
        },
        {
            "buffer" : 0,
            "byteLength" : 896,
            "byteOffset" : 71064
        },
        {
            "buffer" : 0,
            "byteLength" : 448,
            "byteOffset" : 71960
        },
        {
            "buffer" : 0,
            "byteLength" : 168,
            "byteOffset" : 72408
        },
        {
            "buffer" : 0,
            "byteLength" : 19812,
            "byteOffset" : 72576
        },
        {
            "buffer" : 0,
            "byteLength" : 48,
            "byteOffset" : 92388
        },
        {
            "buffer" : 0,
            "byteLength" : 48,
            "byteOffset" : 92436
        },
        {
            "buffer" : 0,
            "byteLength" : 64,
            "byteOffset" : 92484
        },
        {
            "buffer" : 0,
            "byteLength" : 32,
            "byteOffset" : 92548
        },
        {
            "buffer" : 0,
            "byteLength" : 12,
            "byteOffset" : 92580
        },
        {
            "buffer" : 0,
            "byteLength" : 29856,
            "byteOffset" : 92592
        }
    ],
    "samplers" : [
        {
            "magFilter" : 9728,
            "minFilter" : 9984
        }
    ],
    "buffers" : [
        {
            "byteLength" : 122448,
            "uri" : "data:application/octet-stream;base64,"
        }
    ]
}
